Coordinates
version=1
nRows=10
nColumns=40
inDegrees=yes

Units are S.I. units (second, meters, Newtons, ...)
Angles are in degrees.

endheader
time	pelvis_tilt	pelvis_list	pelvis_rotation	pelvis_tx	pelvis_ty	pelvis_tz	hip_flexion_r	hip_adduction_r	hip_rotation_r	knee_angle_r	knee_angle_r_beta	ankle_angle_r	subtalar_angle_r	mtp_angle_r	hip_flexion_l	hip_adduction_l	hip_rotation_l	knee_angle_l	knee_angle_l_beta	ankle_angle_l	subtalar_angle_l	mtp_angle_l	lumbar_extension	lumbar_bending	lumbar_rotation	arm_flex_r	arm_add_r	arm_rot_r	elbow_flex_r	pro_sup_r	wrist_flex_r	wrist_dev_r	arm_flex_l	arm_add_l	arm_rot_l	elbow_flex_l	pro_sup_l	wrist_flex_l	wrist_dev_l
     23.06250000	     -5.39923478	     -5.75084608	      2.58902532	      1.05987509	      0.91438900	      0.46388052	      0.74156093	     -0.43478374	    -14.31741656	     27.91094309	     27.91094309	     15.20510033	      0.11385959	    -13.39325346	     31.42579709	     -6.80238741	      0.77495306	     29.18825723	     29.18825723	      6.79650355	    -15.57297887	      8.35224825	     -9.84768521	      4.93300160	      7.26044280	     44.69155421	    -14.65534334	      4.44143910	    118.10858206	     43.68943523	      0.00000000	      0.00000000	    -18.26506115	     -7.23275261	      7.26844025	     28.89852143	     44.84105324	      0.00000000	      0.00000000
     23.07428571	     -5.46033173	     -5.56213771	      2.43196626	      1.05980033	      0.91570686	      0.46078748	      2.23896467	     -1.41294295	    -13.93989623	     31.42049861	     31.42049861	     13.72103665	     -1.03018182	    -14.53083015	     30.69178109	     -6.52341580	      0.44036013	     28.96914958	     28.96914958	      7.43466624	    -15.41215336	      8.08432887	     -9.79680978	      4.83969409	      7.02454187	     43.06303371	    -14.78357633	      4.58909312	    118.31930410	     43.68420409	      0.00000000	      0.00000000	    -17.21180561	     -7.20629597	      7.11887835	     29.49545722	     44.88937476	      0.00000000	      0.00000000
     23.08607143	     -5.39975005	     -5.45700574	      2.30974751	      1.05958692	      0.91707389	      0.45786703	      3.72926989	     -2.27023572	    -13.53328361	     35.03321594	     35.03321594	     11.92735550	     -2.32088791	    -15.44060746	     29.90796405	     -6.34461689	      0.08892407	     28.84335042	     28.84335042	      7.93833570	    -15.32096988	      7.83791273	     -9.92443414	      4.84162146	      6.79243715	     41.25657240	    -14.90070717	      4.74537521	    118.34123269	     43.67976926	      0.00000000	      0.00000000	    -15.99632698	     -7.23856491	      6.92875802	     30.20688659	     44.94253052	      0.00000000	      0.00000000
     23.09785714	     -5.46734246	     -5.45579841	      2.19161447	      1.05912195	      0.91812503	      0.45516791	      5.44152814	     -2.84055690	    -12.75879051	     38.42035514	     38.42035514	      8.45295346	     -5.28634654	    -19.73274457	     29.22810548	     -6.26178896	     -0.15639832	     28.58078370	     28.58078370	      8.27306902	    -15.18191473	      7.19862719	     -9.96483434	      4.90027951	      7.18590646	     38.75847628	    -15.63848596	      3.71937427	    119.44051348	     43.74113415	      0.00000000	      0.00000000	    -14.77668775	     -7.34320423	      5.79726323	     31.89898514	     45.16996877	      0.00000000	      0.00000000
     23.10964286	     -5.45524380	     -5.32160989	      2.05508734	      1.05842584	      0.91908806	      0.45254183	      7.35453275	     -3.69056174	    -12.21276172	     42.39570603	     42.39570603	      6.36472971	     -6.66448674	    -19.68338594	     28.49737341	     -6.06601062	     -0.51807126	     28.39361046	     28.39361046	      8.73898137	    -15.00409344	      6.92297904	    -10.06119770	      4.85822868	      6.78266967	     36.87564830	    -15.69122979	      3.99474404	    118.72360664	     43.75410531	      0.00000000	      0.00000000	    -13.44912445	     -7.43786053	      5.62084739	     32.56029430	     45.21967001	      0.00000000	      0.00000000
     23.12142857	     -5.47745680	     -5.23761110	      1.92720027	      1.05754811	      0.91984165	      0.45007224	      9.42215981	     -4.36598952	    -11.50088990	     46.33132128	     46.33132128	      4.09983240	     -8.34284976	    -19.18820009	     27.83960142	     -5.92263774	     -0.83277225	     28.22702969	     28.22702969	      9.15759063	    -14.80274452	      6.59432322	    -10.12397630	      4.86426793	      6.47189581	     34.81197214	    -15.87599507	      4.04580804	    117.83818696	     43.77981685	      0.00000000	      0.00000000	    -12.07118301	     -7.59739919	      5.33330249	     33.47908168	     45.28465125	      0.00000000	      0.00000000
     23.13321429	     -5.42910267	     -5.11842064	      1.81716547	      1.05648402	      0.92054702	      0.44770927	     11.45310727	     -5.01659558	    -10.80023680	     50.10863049	     50.10863049	      1.90548270	     -9.89603577	    -18.33612340	     27.16188614	     -5.75456602	     -1.17335271	     28.13167460	     28.13167460	      9.58202599	    -14.59100966	      6.23907890	    -10.30455143	      4.85232158	      6.16475060	     32.65770037	    -15.97973899	      4.03540461	    116.76436660	     43.81151580	      0.00000000	      0.00000000	    -10.54542859	     -7.81445678	      5.02372779	     34.49927833	     45.35269217	      0.00000000	      0.00000000
     23.14500000	     -5.41593813	     -5.15732714	      1.70122103	      1.05526779	      0.92109825	      0.44567254	     13.70715442	     -5.34975430	     -9.99016773	     54.02440045	     54.02440045	      1.17153896	    -10.50675184	    -13.25398301	     26.52323019	     -5.78491337	     -1.49477385	     27.96973236	     27.96973236	      9.70605021	    -14.35511772	      5.04849979	    -10.44429114	      4.92994446	      6.06890411	     30.23508143	    -15.93601895	      2.67300607	    115.22393953	     43.96823220	      0.00000000	      0.00000000	     -9.43096640	     -7.97599994	      3.49926833	     37.00483641	     45.60638515	      0.00000000	      0.00000000
     23.15678571	     -5.34585947	     -5.08378591	      1.57230694	      1.05394106	      0.92167972	      0.44362330	     15.83689312	     -5.79885935	     -9.27479836	     57.50429629	     57.50429629	      0.23682235	    -11.04086919	     -9.65789656	     25.85018710	     -5.69411163	     -1.84750446	     27.87980801	     27.87980801	     10.07345349	    -14.09392847	      4.54583208	    -10.62611716	      4.94815765	      5.64245137	     28.16297791	    -15.76009871	      2.31000998	    112.93788050	     44.10312966	      0.00000000	      0.00000000	     -7.79619340	     -8.17779002	      2.95950470	     37.97713259	     45.72711267	      0.00000000	      0.00000000
     23.16857143	     -5.20443248	     -4.96545947	      1.48324881	      1.05257435	      0.92234723	      0.44157788	     17.74090182	     -6.26953557	     -8.68358783	     60.39063111	     60.39063111	     -1.35362094	    -11.88863649	     -9.05985017	     25.10550138	     -5.51933002	     -2.11017458	     27.79129563	     27.79129563	     10.48427323	    -13.93437026	      4.34781133	    -10.94612560	      4.99346093	      5.26905487	     26.00165809	    -15.81372979	      2.51758919	    111.38682719	     44.14002525	      0.00000000	      0.00000000	     -5.98062597	     -8.53087817	      2.78762873	     38.78049851	     45.77587239	      0.00000000	      0.00000000
